<svg width="256" height="256" viewBox="0 0 256 256" fill="none" xmlns="http://www.w3.org/2000/svg">
<g filter="url(#filter0_d_53423_17)">
<path d="M213.66 82.34L157.66 26.34C156.917 25.5973 156.034 25.0084 155.063 24.6069C154.092 24.2054 153.051 23.9992 152 24H56C51.7565 24 47.6869 25.6857 44.6863 28.6863C41.6857 31.6869 40 35.7565 40 40V112C40 114.122 40.8429 116.157 42.3431 117.657C43.8434 119.157 45.8783 120 48 120C50.1217 120 52.1566 119.157 53.6569 117.657C55.1571 116.157 56 114.122 56 112V40H144V88C144 90.1217 144.843 92.1566 146.343 93.6569C147.843 95.1571 149.878 96 152 96H200V216H176C173.878 216 171.843 216.843 170.343 218.343C168.843 219.843 168 221.878 168 224C168 226.122 168.843 228.157 170.343 229.657C171.843 231.157 173.878 232 176 232H200C204.243 232 208.313 230.314 211.314 227.314C214.314 224.313 216 220.243 216 216V88C216.001 86.9491 215.795 85.9084 215.393 84.9372C214.992 83.966 214.403 83.0835 213.66 82.34ZM160 51.31L188.69 80H160V51.31ZM147.81 196.31C147.498 199.37 146.512 202.322 144.923 204.956C143.334 207.589 141.182 209.838 138.62 211.54C133.43 215 127 216 121.13 216C116.003 215.971 110.9 215.299 105.94 214C103.897 213.428 102.164 212.069 101.123 210.219C100.082 208.37 99.8185 206.183 100.39 204.14C100.962 202.097 102.321 200.364 104.171 199.323C106.02 198.282 108.207 198.018 110.25 198.59C114.63 199.79 125.25 201.29 129.8 198.23C130.68 197.64 131.63 196.71 131.94 194.3C132.28 191.63 131.23 190.2 119.16 186.71C109.81 184.01 94.16 179.48 96.16 163.6C96.472 160.601 97.4399 157.706 98.9953 155.123C100.551 152.539 102.655 150.329 105.16 148.65C117 140.65 135.87 145.34 137.99 145.89C140.043 146.43 141.797 147.763 142.867 149.596C143.937 151.429 144.235 153.612 143.695 155.665C143.155 157.718 141.822 159.472 139.989 160.542C138.156 161.612 135.973 161.91 133.92 161.37C129.43 160.2 118.69 158.81 114.09 161.93C113.487 162.337 112.991 162.882 112.643 163.521C112.295 164.16 112.105 164.873 112.09 165.6C111.97 166.5 111.95 166.69 113.2 167.5C115.51 168.99 119.65 170.18 123.65 171.34C133.49 174.17 150.05 179 147.81 196.31ZM80 152V190C80 196.896 77.2607 203.509 72.3848 208.385C67.5088 213.261 60.8956 216 54 216C47.1044 216 40.4912 213.261 35.6152 208.385C30.7393 203.509 28 196.896 28 190C28 187.878 28.8429 185.843 30.3431 184.343C31.8434 182.843 33.8783 182 36 182C38.1217 182 40.1566 182.843 41.6569 184.343C43.1571 185.843 44 187.878 44 190C44 192.652 45.0536 195.196 46.9289 197.071C48.8043 198.946 51.3478 200 54 200C56.6522 200 59.1957 198.946 61.0711 197.071C62.9464 195.196 64 192.652 64 190V152C64 149.878 64.8429 147.843 66.3431 146.343C67.8434 144.843 69.8783 144 72 144C74.1217 144 76.1566 144.843 77.6569 146.343C79.1571 147.843 80 149.878 80 152Z" fill="black"/>
</g>
<defs>
<filter id="filter0_d_53423_17" x="-4" y="0" width="264" height="264" filterUnits="userSpaceOnUse" color-interpolation-filters="sRGB">
<feFlood flood-opacity="0" result="BackgroundImageFix"/>
<feColorMatrix in="SourceAlpha" type="matrix" values="0 0 0 0 0 0 0 0 0 0 0 0 0 0 0 0 0 0 127 0" result="hardAlpha"/>
<feOffset dy="4"/>
<feGaussianBlur stdDeviation="2"/>
<feComposite in2="hardAlpha" operator="out"/>
<feColorMatrix type="matrix" values="0 0 0 0 0 0 0 0 0 0 0 0 0 0 0 0 0 0 0.25 0"/>
<feBlend mode="normal" in2="BackgroundImageFix" result="effect1_dropShadow_53423_17"/>
<feBlend mode="normal" in="SourceGraphic" in2="effect1_dropShadow_53423_17" result="shape"/>
</filter>
</defs>
</svg>
