<svg width="75" height="75" viewBox="0 0 75 75" fill="none" xmlns="http://www.w3.org/2000/svg">
<rect x="0.5" y="0.5" width="74" height="74" fill="#00C4F0"/>
<path opacity="0.2" d="M60.9375 25.7812H44.5312V9.375L60.9375 25.7812Z" fill="black"/>
<path d="M62.5957 24.123L46.1895 7.7168C45.9716 7.49922 45.7131 7.32668 45.4286 7.20906C45.144 7.09143 44.8391 7.03101 44.5312 7.03125H16.4062C15.163 7.03125 13.9708 7.52511 13.0917 8.40419C12.2126 9.28326 11.7188 10.4755 11.7188 11.7188V32.8125C11.7188 33.4341 11.9657 34.0302 12.4052 34.4698C12.8448 34.9093 13.4409 35.1562 14.0625 35.1562C14.6841 35.1562 15.2802 34.9093 15.7198 34.4698C16.1593 34.0302 16.4062 33.4341 16.4062 32.8125V11.7188H42.1875V25.7812C42.1875 26.4029 42.4344 26.999 42.874 27.4385C43.3135 27.8781 43.9096 28.125 44.5312 28.125H58.5938V63.2812H51.5625C50.9409 63.2812 50.3448 63.5282 49.9052 63.9677C49.4657 64.4073 49.2188 65.0034 49.2188 65.625C49.2188 66.2466 49.4657 66.8427 49.9052 67.2823C50.3448 67.7218 50.9409 67.9688 51.5625 67.9688H58.5938C59.837 67.9688 61.0292 67.4749 61.9083 66.5958C62.7874 65.7167 63.2812 64.5245 63.2812 63.2812V25.7812C63.2815 25.4734 63.2211 25.1685 63.1034 24.8839C62.9858 24.5994 62.8133 24.3409 62.5957 24.123ZM46.875 15.0322L55.2803 23.4375H46.875V15.0322ZM43.3037 57.5127C43.2124 58.4091 42.9235 59.2742 42.458 60.0457C41.9925 60.8171 41.3618 61.4759 40.6113 61.9746C39.0908 62.9883 37.207 63.2812 35.4873 63.2812C33.9911 63.2718 32.502 63.075 31.0547 62.6953C30.7548 62.6157 30.4736 62.4774 30.2276 62.2883C29.9815 62.0992 29.7755 61.8632 29.6214 61.5938C29.4673 61.3245 29.3682 61.0272 29.3299 60.7193C29.2916 60.4114 29.3148 60.0989 29.3982 59.8C29.4816 59.5011 29.6235 59.2218 29.8157 58.9781C30.0079 58.7345 30.2466 58.5315 30.5179 58.3809C30.7892 58.2302 31.0877 58.135 31.3961 58.1006C31.7045 58.0662 32.0167 58.0934 32.3145 58.1807C33.5977 58.5322 36.709 58.9717 38.042 58.0752C38.2998 57.9023 38.5781 57.6299 38.6689 56.9238C38.7715 56.1416 38.4609 55.7227 34.9248 54.7002C32.1855 53.9092 27.6006 52.582 28.1865 47.9297C28.2779 47.0509 28.5615 46.2031 29.0172 45.4461C29.4728 44.6892 30.0894 44.0418 30.8232 43.5498C34.292 41.2061 39.8203 42.5801 40.4414 42.7412C41.0428 42.8993 41.5568 43.2899 41.8702 43.8269C42.1836 44.364 42.2709 45.0036 42.1128 45.605C41.9547 46.2064 41.5641 46.7203 41.0271 47.0338C40.49 47.3472 39.8504 47.4345 39.249 47.2764C37.9336 46.9336 34.7871 46.5264 33.4395 47.4404C33.2628 47.5596 33.1174 47.7195 33.0154 47.9066C32.9134 48.0937 32.8579 48.3026 32.8535 48.5156C32.8184 48.7793 32.8125 48.835 33.1787 49.0723C33.8555 49.5088 35.0684 49.8574 36.2402 50.1973C39.1084 51.0264 43.96 52.4414 43.3037 57.5127ZM23.4375 44.5312V55.6641C23.4375 57.6843 22.635 59.6217 21.2065 61.0502C19.778 62.4787 17.8405 63.2812 15.8203 63.2812C13.8001 63.2812 11.8626 62.4787 10.4341 61.0502C9.00565 59.6217 8.20313 57.6843 8.20312 55.6641C8.20312 55.0425 8.45005 54.4463 8.88959 54.0068C9.32913 53.5672 9.92527 53.3203 10.5469 53.3203C11.1685 53.3203 11.7646 53.5672 12.2042 54.0068C12.6437 54.4463 12.8906 55.0425 12.8906 55.6641C12.8906 56.4411 13.1993 57.1862 13.7487 57.7357C14.2981 58.2851 15.0433 58.5938 15.8203 58.5938C16.5973 58.5938 17.3425 58.2851 17.8919 57.7357C18.4413 57.1862 18.75 56.4411 18.75 55.6641V44.5312C18.75 43.9096 18.9969 43.3135 19.4365 42.874C19.876 42.4344 20.4721 42.1875 21.0938 42.1875C21.7154 42.1875 22.3115 42.4344 22.751 42.874C23.1906 43.3135 23.4375 43.9096 23.4375 44.5312Z" fill="black"/>
<rect x="0.5" y="0.5" width="74" height="74" stroke="black"/>
</svg>
