<svg aria-hidden="true" style="position: absolute; width: 0; height: 0; overflow: hidden;" version="1.1" xmlns="http://www.w3.org/2000/svg" xmlns:xlink="http://www.w3.org/1999/xlink">
<defs>
<symbol id="icon-chocolate" viewBox="0 0 32 32">
<path d="M3.944 20.076l10.777-17.424 0.64-0.674 8.236 5.491 0.056 3.314 2.010 3.28-8.88 14.077-12.839-8.063z"></path>
<path stroke-linejoin="round" stroke-linecap="round" stroke-miterlimit="4" stroke-width="2.6667" d="M21.635 23.88l-14.185-8.864M11.361 8.599l14.185 8.864M10.63 25.864l11.736-19.25M27.176 14.789c-3.040-1.899-4.234-3.384-2.278-6.592l-9.626-6.015-11.736 19.25 14.186 8.864 9.454-15.507z"></path>
</symbol>
<symbol id="icon-coin" viewBox="0 0 32 32">
<path d="M16 2.667c-7.333 0-13.333 6-13.333 13.333s6 13.333 13.333 13.333c7.333 0 13.333-6 13.333-13.333s-6-13.333-13.333-13.333zM16 26.667c-5.867 0-10.667-4.8-10.667-10.667s4.8-10.667 10.667-10.667c5.867 0 10.667 4.8 10.667 10.667s-4.8 10.667-10.667 10.667z"></path>
<path d="M17.733 14.667h-3.467c-0.667 0-1.2-0.533-1.2-1.2s0.533-1.2 1.2-1.2h4.933c0.8 0 1.333-0.533 1.333-1.333s-0.533-1.333-1.333-1.333h-1.867v-1.2c0-0.8-0.533-1.333-1.333-1.333s-1.333 0.533-1.333 1.333v1.2h-0.4c-2.133 0-3.867 1.733-3.867 3.867s1.733 3.867 3.867 3.867h3.333c0.667 0 1.2 0.533 1.2 1.2s-0.533 1.2-1.2 1.2h-4.933c-0.8 0-1.333 0.533-1.333 1.333s0.533 1.333 1.333 1.333h2v1.2c0 0.8 0.533 1.333 1.333 1.333s1.333-0.533 1.333-1.333v-1.2h0.4c2.133 0 3.867-1.733 3.867-3.867s-1.733-3.867-3.867-3.867z"></path>
</symbol>
<symbol id="icon-angle" viewBox="0 0 32 32">
<path d="M16.947 17.867c-0.124 0.125-0.271 0.224-0.434 0.292s-0.337 0.103-0.513 0.103-0.35-0.035-0.513-0.103c-0.162-0.068-0.31-0.167-0.434-0.292l-6.107-6.12c-0.124-0.125-0.271-0.224-0.434-0.292s-0.337-0.103-0.513-0.103c-0.176 0-0.35 0.035-0.513 0.103s-0.31 0.167-0.434 0.292c-0.248 0.25-0.388 0.588-0.388 0.94s0.139 0.69 0.388 0.94l6.12 6.12c0.75 0.749 1.767 1.17 2.827 1.17s2.077-0.421 2.827-1.17l6.12-6.12c0.246-0.248 0.385-0.584 0.387-0.933 0.001-0.175-0.033-0.349-0.099-0.512s-0.164-0.31-0.288-0.435c-0.124-0.125-0.271-0.224-0.434-0.292s-0.337-0.103-0.513-0.103-0.35 0.035-0.513 0.103c-0.162 0.068-0.31 0.167-0.434 0.292l-6.107 6.12z"></path>
</symbol>
<symbol id="icon-chocolate-bar" viewBox="0 0 32 32">
<path d="M13.822 2.413l7.527 7.536 0.080-0.080c0.158-0.154 0.369-0.242 0.589-0.244s0.434 0.080 0.595 0.231l0.873 0.873c0.305 0.305 0.315 0.77 0.083 1.094l-0.004 0.007-0.143 0.192 6.16 6.16c0.55 0.55 0.55 1.43 0 1.98l-9.43 9.43c-0.55 0.55-1.43 0.55-1.98 0l-4.447-4.447c-0.074 0.093-0.167 0.169-0.272 0.224s-0.221 0.086-0.34 0.093c-0.119 0.007-0.237-0.012-0.348-0.054s-0.212-0.108-0.296-0.192l-2.6-2.6c-0.154-0.158-0.242-0.369-0.244-0.589s0.080-0.434 0.231-0.595l0.006-0.007 0.077-0.076-7.527-7.527c-0.55-0.55-0.55-1.43 0-1.98l9.43-9.43c0.55-0.55 1.43-0.55 1.98 0v0.001zM20.404 10.893l-1.756-1.755c-0.055-0.057-0.121-0.102-0.194-0.133s-0.151-0.047-0.231-0.047c-0.079 0-0.158 0.016-0.231 0.047s-0.139 0.076-0.194 0.133l-3.58 3.58c-0.057 0.056-0.102 0.123-0.132 0.197s-0.047 0.153-0.047 0.233 0.016 0.159 0.047 0.233c0.031 0.074 0.076 0.141 0.132 0.197l1.749 1.749 0.61-0.61-1.565-1.565 3.21-3.22 1.569 1.574 0.613-0.613zM15.328 15.965l-1.754-1.754c-0.055-0.057-0.121-0.102-0.194-0.133s-0.152-0.047-0.231-0.047c-0.079 0-0.158 0.016-0.231 0.047s-0.139 0.076-0.194 0.133l-3.59 3.59c-0.24 0.23-0.24 0.61 0 0.85l1.752 1.752 0.616-0.616-1.57-1.564 3.22-3.21 1.564 1.563 0.612-0.611zM8.822 8.193l3.58 3.58c0.24 0.24 0.62 0.24 0.85-0.010l3.58-3.58c0.057-0.054 0.102-0.119 0.133-0.192s0.047-0.15 0.047-0.228h0.010c0-0.15-0.060-0.31-0.18-0.43l-3.58-3.58c-0.056-0.057-0.123-0.102-0.197-0.133s-0.153-0.047-0.233-0.047c-0.080 0-0.159 0.016-0.233 0.047s-0.141 0.076-0.197 0.133l-3.58 3.59c-0.24 0.23-0.24 0.61 0 0.85zM3.752 13.263l3.58 3.58c0.24 0.24 0.62 0.24 0.85 0l3.58-3.58c0.058-0.055 0.104-0.122 0.135-0.196s0.046-0.154 0.045-0.234h0.010c0-0.16-0.060-0.31-0.18-0.43l-3.58-3.58c-0.055-0.057-0.121-0.102-0.194-0.133s-0.151-0.047-0.231-0.047c-0.079 0-0.158 0.016-0.231 0.047s-0.139 0.076-0.194 0.133l-3.59 3.59c-0.24 0.23-0.24 0.61 0 0.85zM10.685 22.017l2.362 2.363 9.636-13.040-0.655-0.655-11.343 11.332z"></path>
<path d="M13.822 2.413l7.527 7.536 0.080-0.080c0.158-0.154 0.369-0.242 0.589-0.244s0.434 0.080 0.595 0.231l0.873 0.873c0.305 0.305 0.315 0.77 0.083 1.094l-0.004 0.007-0.143 0.192 6.16 6.16c0.55 0.55 0.55 1.43 0 1.98l-9.43 9.43c-0.55 0.55-1.43 0.55-1.98 0l-4.447-4.447c-0.074 0.093-0.167 0.169-0.272 0.224s-0.221 0.086-0.34 0.093c-0.119 0.007-0.237-0.012-0.348-0.054s-0.212-0.108-0.296-0.192l-2.6-2.6c-0.154-0.158-0.242-0.369-0.244-0.589s0.080-0.434 0.231-0.595l0.006-0.007 0.077-0.076-7.527-7.527c-0.55-0.55-0.55-1.43 0-1.98l9.43-9.43c0.55-0.55 1.43-0.55 1.98 0v0.001zM20.404 10.893l-1.756-1.755c-0.055-0.057-0.121-0.102-0.194-0.133s-0.151-0.047-0.231-0.047c-0.079 0-0.158 0.016-0.231 0.047s-0.139 0.076-0.194 0.133l-3.58 3.58c-0.057 0.056-0.102 0.123-0.132 0.197s-0.047 0.153-0.047 0.233 0.016 0.159 0.047 0.233c0.031 0.074 0.076 0.141 0.132 0.197l1.749 1.749 0.61-0.61-1.565-1.565 3.21-3.22 1.569 1.574 0.613-0.613zM15.328 15.965l-1.754-1.754c-0.055-0.057-0.121-0.102-0.194-0.133s-0.152-0.047-0.231-0.047c-0.079 0-0.158 0.016-0.231 0.047s-0.139 0.076-0.194 0.133l-3.59 3.59c-0.24 0.23-0.24 0.61 0 0.85l1.752 1.752 0.616-0.616-1.57-1.564 3.22-3.21 1.564 1.563 0.612-0.611zM8.822 8.193l3.58 3.58c0.24 0.24 0.62 0.24 0.85-0.010l3.58-3.58c0.057-0.054 0.102-0.119 0.133-0.192s0.047-0.15 0.047-0.228h0.010c0-0.15-0.060-0.31-0.18-0.43l-3.58-3.58c-0.056-0.057-0.123-0.102-0.197-0.133s-0.153-0.047-0.233-0.047c-0.080 0-0.159 0.016-0.233 0.047s-0.141 0.076-0.197 0.133l-3.58 3.59c-0.24 0.23-0.24 0.61 0 0.85zM3.752 13.263l3.58 3.58c0.24 0.24 0.62 0.24 0.85 0l3.58-3.58c0.058-0.055 0.104-0.122 0.135-0.196s0.046-0.154 0.045-0.234h0.010c0-0.16-0.060-0.31-0.18-0.43l-3.58-3.58c-0.055-0.057-0.121-0.102-0.194-0.133s-0.151-0.047-0.231-0.047c-0.079 0-0.158 0.016-0.231 0.047s-0.139 0.076-0.194 0.133l-3.59 3.59c-0.24 0.23-0.24 0.61 0 0.85zM10.685 22.017l2.362 2.363 9.636-13.040-0.655-0.655-11.343 11.332z"></path>
</symbol>
<symbol id="icon-instagram" viewBox="0 0 32 32">
<path stroke-linejoin="round" stroke-linecap="round" stroke-miterlimit="4" stroke-width="2.6667" d="M22.667 2.667h-13.333c-3.682 0-6.667 2.985-6.667 6.667v13.333c0 3.682 2.985 6.667 6.667 6.667h13.333c3.682 0 6.667-2.985 6.667-6.667v-13.333c0-3.682-2.985-6.667-6.667-6.667z"></path>
<path stroke-linejoin="round" stroke-linecap="round" stroke-miterlimit="4" stroke-width="2.6667" d="M21.334 15.16c0.165 1.11-0.025 2.243-0.542 3.239s-1.334 1.803-2.336 2.307c-1.002 0.504-2.138 0.68-3.245 0.502s-2.131-0.701-2.924-1.494-1.316-1.816-1.494-2.924c-0.178-1.108-0.003-2.243 0.502-3.245s1.312-1.819 2.308-2.336 2.129-0.706 3.239-0.542c1.132 0.168 2.18 0.695 2.989 1.504s1.337 1.857 1.504 2.989z"></path>
<path stroke-linejoin="round" stroke-linecap="round" stroke-miterlimit="4" stroke-width="2.6667" d="M23.333 8.667h0.013"></path>
</symbol>
<symbol id="icon-spoon" viewBox="0 0 32 32">
<path d="M15.451 14.106c-0.783-0.95-1.177-2.116-1.177-3.282 0-4.324 5.181-8.642 10.362-8.642 2.86 0 5.181 2.321 5.181 5.182 0 5.182-4.317 10.364-8.646 10.364-1.166 0-2.332-0.394-3.281-1.177l-12.758 12.761c-0.675 0.675-1.77 0.675-2.445 0s-0.675-1.771 0-2.445l12.764-12.761z"></path>
</symbol>

<symbol id="icon-close" viewBox="0 0 32 32">
<path stroke-linejoin="round" stroke-linecap="round" stroke-miterlimit="4" stroke-width="2.9091" d="M24 8l-16 16"></path>
<path stroke-linejoin="round" stroke-linecap="round" stroke-miterlimit="4" stroke-width="2.9091" d="M8 8l16 16"></path>
</symbol>
<symbol id="icon-burger" viewBox="0 0 47 32">
<path stroke-linejoin="round" stroke-linecap="round" stroke-miterlimit="4" stroke-width="4.3636" d="M1.96 29.154h42.965M1.96 15.615h42.965M1.96 2.077h42.965"></path>
</symbol>
<symbol id="icon-mastercard" viewBox="0 0 49 32">
<path fill="#fafafa" style="fill: var(--color1, #fafafa)" d="M6.095 0.762h36.571c2.946 0 5.333 2.388 5.333 5.333v19.81c0 2.946-2.388 5.333-5.333 5.333h-36.571c-2.946 0-5.333-2.388-5.333-5.333v-19.81c0-2.946 2.388-5.333 5.333-5.333z"></path>
<path fill="#ed0006" style="fill: var(--color2, #ed0006)" d="M24.381 23.29c-1.771 1.462-4.068 2.345-6.578 2.345-5.601 0-10.141-4.396-10.141-9.818s4.54-9.818 10.141-9.818c2.51 0 4.807 0.883 6.578 2.345 1.771-1.462 4.068-2.345 6.578-2.345 5.601 0 10.141 4.395 10.141 9.818s-4.54 9.818-10.141 9.818c-2.51 0-4.807-0.883-6.578-2.345z"></path>
<path fill="#f9a000" style="fill: var(--color3, #f9a000)" d="M24.381 23.29c2.18-1.801 3.563-4.48 3.563-7.472s-1.383-5.672-3.563-7.472c1.771-1.462 4.068-2.345 6.578-2.345 5.601 0 10.141 4.395 10.141 9.818s-4.54 9.818-10.141 9.818c-2.51 0-4.807-0.883-6.578-2.345z"></path>
<path fill="#ff5e00" style="fill: var(--color4, #ff5e00)" d="M24.381 23.29c2.18-1.801 3.563-4.48 3.563-7.472s-1.383-5.671-3.563-7.472c-2.18 1.801-3.563 4.48-3.563 7.472s1.383 5.672 3.563 7.472z"></path>
<path fill="none" stroke="#fafafa" style="stroke: var(--color1, #fafafa)" stroke-linejoin="miter" stroke-linecap="butt" stroke-miterlimit="4" stroke-width="1.5238" d="M6.095 0.762h36.571c2.946 0 5.333 2.388 5.333 5.333v19.81c0 2.946-2.388 5.333-5.333 5.333h-36.571c-2.946 0-5.333-2.388-5.333-5.333v-19.81c0-2.946 2.388-5.333 5.333-5.333z"></path>
</symbol>
<symbol id="icon-flag" viewBox="0 0 31 32">
<path fill="#ffd700" style="fill: var(--color5, #ffd700)" d="M30.559 5.496h-30.326v22.568h30.326v-22.568z"></path>
<path fill="#0057b7" style="fill: var(--color6, #0057b7)" d="M0.233 5.496h30.326v11.284h-30.326v-11.284z"></path>
</symbol>
<symbol id="play" viewBox="0 0 32 32">
<path fill="#f5f4f4" style="fill: var(--color1, #f5f4f4)" d="M10.909 24v-15.273l14.545 7.636-14.545 7.636z"></path>
<path fill="none" stroke="#fff" style="stroke: var(--color2, #fff)" stroke-linejoin="miter" stroke-linecap="butt" stroke-miterlimit="4" stroke-width="0.7273" d="M31.636 16c0 8.636-7.001 15.636-15.636 15.636s-15.636-7.001-15.636-15.636c0-8.636 7.001-15.636 15.636-15.636s15.636 7.001 15.636 15.636z"></path>
</symbol>
<symbol id="icon-vector" viewBox="0 0 32 32">
<path d="M17.143 0h-2.286v10.12l-3.791-9.384-2.119 0.856 3.889 9.627-7.342-7.342-1.616 1.616 7.037 7.037-9.119-3.984-0.915 2.095 9.649 4.216h-10.53v2.286h10.53l-9.649 4.216 0.915 2.095 9.119-3.984-7.037 7.037 1.616 1.616 7.342-7.342-3.889 9.627 2.119 0.856 3.791-9.383v10.12h2.286v-10.12l3.791 9.383 2.119-0.856-3.889-9.627 7.342 7.342 1.616-1.616-7.037-7.037 9.119 3.984 0.915-2.095-9.649-4.216h10.53v-2.286h-10.53l9.649-4.216-0.915-2.095-9.119 3.984 7.037-7.037-1.616-1.616-7.342 7.342 3.889-9.627-2.119-0.856-3.791 9.384v-10.12z"></path>
</symbol>
<symbol id="icon-hamburger" viewBox="0 0 47 32">
<path stroke-width="4.3636" stroke-miterlimit="4" stroke-linecap="round" stroke-linejoin="round" d="M1.96 29.154h42.965M1.96 15.615h42.965M1.96 2.077h42.965"></path>
</symbol>
<symbol id="icon-facebook" viewBox="0 0 32 32">
<path d="M21.329 5.313h2.921v-5.088c-0.504-0.069-2.237-0.225-4.256-0.225-4.212 0-7.097 2.649-7.097 7.519v4.481h-4.648v5.688h4.648v14.312h5.699v-14.311h4.46l0.708-5.688h-5.169v-3.919c0.001-1.644 0.444-2.769 2.735-2.769z"></path>
</symbol><symbol id="icon-instagram" viewBox="0 0 32 32">
<path d="M31.969 9.408c-0.075-1.7-0.35-2.869-0.744-3.882-0.406-1.075-1.031-2.038-1.85-2.838-0.8-0.813-1.769-1.444-2.832-1.844-1.019-0.394-2.182-0.669-3.882-0.744-1.713-0.081-2.257-0.1-6.601-0.1s-4.888 0.019-6.595 0.094c-1.7 0.075-2.869 0.35-3.882 0.744-1.075 0.406-2.038 1.031-2.838 1.85-0.813 0.8-1.444 1.769-1.844 2.832-0.394 1.019-0.669 2.182-0.744 3.882-0.081 1.713-0.1 2.257-0.1 6.601s0.019 4.888 0.094 6.595c0.075 1.7 0.35 2.869 0.744 3.882 0.406 1.075 1.038 2.038 1.85 2.838 0.8 0.813 1.769 1.444 2.832 1.844 1.019 0.394 2.182 0.669 3.882 0.744 1.706 0.075 2.25 0.094 6.595 0.094s4.888-0.019 6.595-0.094c1.7-0.075 2.869-0.35 3.882-0.744 2.151-0.831 3.851-2.532 4.682-4.682 0.394-1.019 0.669-2.182 0.744-3.882 0.075-1.707 0.094-2.25 0.094-6.595s-0.006-4.888-0.081-6.595zM29.087 22.473c-0.069 1.563-0.331 2.407-0.55 2.969-0.538 1.394-1.644 2.5-3.038 3.038-0.563 0.219-1.413 0.481-2.969 0.55-1.688 0.075-2.194 0.094-6.464 0.094s-4.782-0.019-6.464-0.094c-1.563-0.069-2.407-0.331-2.969-0.55-0.694-0.256-1.325-0.663-1.838-1.194-0.531-0.519-0.938-1.144-1.194-1.838-0.219-0.563-0.481-1.413-0.55-2.969-0.075-1.688-0.094-2.194-0.094-6.464s0.019-4.782 0.094-6.464c0.069-1.563 0.331-2.407 0.55-2.969 0.256-0.694 0.663-1.325 1.2-1.838 0.519-0.531 1.144-0.938 1.838-1.194 0.563-0.219 1.413-0.481 2.969-0.55 1.688-0.075 2.194-0.094 6.464-0.094 4.276 0 4.782 0.019 6.464 0.094 1.563 0.069 2.407 0.331 2.969 0.55 0.694 0.256 1.325 0.662 1.838 1.194 0.531 0.519 0.938 1.144 1.194 1.838 0.219 0.563 0.481 1.413 0.55 2.969 0.075 1.688 0.094 2.194 0.094 6.464s-0.019 4.77-0.094 6.458z"></path>
<path d="M16.059 7.783c-4.538 0-8.22 3.682-8.22 8.22s3.682 8.22 8.22 8.22c4.538 0 8.22-3.682 8.22-8.22s-3.682-8.22-8.22-8.22zM16.059 21.335c-2.944 0-5.332-2.388-5.332-5.332s2.388-5.332 5.332-5.332c2.944 0 5.332 2.388 5.332 5.332s-2.388 5.332-5.332 5.332z"></path>
<path d="M26.524 7.458c0 1.060-0.859 1.919-1.919 1.919s-1.919-0.859-1.919-1.919c0-1.060 0.859-1.919 1.919-1.919s1.919 0.859 1.919 1.919z"></path>
</symbol><symbol id="icon-linkedin" viewBox="0 0 32 32">
<path d="M31.992 32v-0.001h0.008v-11.736c0-5.741-1.236-10.164-7.948-10.164-3.227 0-5.392 1.771-6.276 3.449h-0.093v-2.913h-6.364v21.364h6.627v-10.579c0-2.785 0.528-5.479 3.977-5.479 3.399 0 3.449 3.179 3.449 5.657v10.401h6.62z"></path>
<path d="M0.528 10.636h6.635v21.364h-6.635v-21.364z"></path>
<path d="M3.843-0c-2.121 0-3.843 1.721-3.843 3.843s1.721 3.879 3.843 3.879c2.121 0 3.843-1.757 3.843-3.879-0.001-2.121-1.723-3.843-3.843-3.843v0z"></path>
</symbol><symbol id="icon-twitter" viewBox="0 0 32 32">
<path d="M32 6.078c-1.19 0.522-2.458 0.868-3.78 1.036 1.36-0.812 2.398-2.088 2.886-3.626-1.268 0.756-2.668 1.29-4.16 1.588-1.204-1.282-2.92-2.076-4.792-2.076-3.632 0-6.556 2.948-6.556 6.562 0 0.52 0.044 1.020 0.152 1.496-5.454-0.266-10.28-2.88-13.522-6.862-0.566 0.982-0.898 2.106-0.898 3.316 0 2.272 1.17 4.286 2.914 5.452-1.054-0.020-2.088-0.326-2.964-0.808 0 0.020 0 0.046 0 0.072 0 3.188 2.274 5.836 5.256 6.446-0.534 0.146-1.116 0.216-1.72 0.216-0.42 0-0.844-0.024-1.242-0.112 0.85 2.598 3.262 4.508 6.13 4.57-2.232 1.746-5.066 2.798-8.134 2.798-0.538 0-1.054-0.024-1.57-0.090 2.906 1.874 6.35 2.944 10.064 2.944 12.072 0 18.672-10 18.672-18.668 0-0.29-0.010-0.57-0.024-0.848 1.302-0.924 2.396-2.078 3.288-3.406z"></path>
</symbol>
<symbol id="icon-bi_display" viewBox="0 0 32 32">
<path d="M0 8c0 0 0-4 4-4h24c0 0 4 0 4 4v12c0 0 0 4-4 4h-8c0 1.334 0.166 2.334 0.5 3h1.5c0.265 0 0.52 0.105 0.707 0.293s0.293 0.442 0.293 0.707-0.105 0.52-0.293 0.707c-0.188 0.188-0.442 0.293-0.707 0.293h-12c-0.265 0-0.52-0.105-0.707-0.293s-0.293-0.442-0.293-0.707 0.105-0.52 0.293-0.707c0.188-0.188 0.442-0.293 0.707-0.293h1.5c0.334-0.666 0.5-1.666 0.5-3h-8c0 0-4 0-4-4v-12zM2.796 6.29c-0.22 0.153-0.395 0.361-0.508 0.604-0.17 0.352-0.268 0.735-0.288 1.126v11.98c0 0.65 0.156 1.004 0.29 1.204 0.14 0.21 0.34 0.376 0.604 0.508 0.337 0.163 0.702 0.26 1.076 0.286l0.050 0.002h23.98c0.65 0 1.004-0.156 1.204-0.29 0.22-0.153 0.395-0.361 0.508-0.604 0.163-0.337 0.26-0.702 0.286-1.076l0.002-0.050v-11.98c0-0.65-0.156-1.004-0.29-1.204-0.153-0.22-0.361-0.395-0.604-0.508-0.352-0.17-0.735-0.268-1.126-0.288h-23.98c-0.65 0-1.004 0.156-1.204 0.29z"></path>
</symbol>
<symbol id="icon-bx_bx-code-alt" viewBox="0 0 32 32">
<path d="M9.833 22.375l1.667-2.083-5.365-4.292 5.365-4.292-1.667-2.083-6.667 5.333c-0.156 0.125-0.282 0.283-0.369 0.464s-0.132 0.378-0.132 0.578c0 0.2 0.045 0.397 0.132 0.578s0.213 0.339 0.369 0.464l6.667 5.333zM22.167 9.625l-1.667 2.083 5.365 4.292-5.365 4.292 1.667 2.083 6.667-5.333c0.156-0.125 0.282-0.283 0.369-0.464s0.132-0.378 0.132-0.578c0-0.2-0.045-0.397-0.132-0.578s-0.213-0.339-0.369-0.464l-6.667-5.333zM19.968 4.288l-5.333 24-2.604-0.579 5.333-24 2.604 0.579z"></path>
</symbol>
<symbol id="icon-fa-brands_node-js" viewBox="0 0 28 32">
<path d="M14 31.75c-0.419 0-0.844-0.113-1.213-0.325l-3.856-2.281c-0.575-0.325-0.294-0.438-0.106-0.5 0.769-0.269 0.925-0.325 1.744-0.794 0.088-0.050 0.2-0.031 0.287 0.025l2.963 1.756c0.106 0.063 0.256 0.063 0.356 0l11.544-6.663c0.106-0.063 0.175-0.188 0.175-0.313v-13.325c0-0.131-0.069-0.25-0.181-0.319l-11.537-6.656c-0.106-0.063-0.25-0.063-0.356 0l-11.531 6.662c-0.112 0.063-0.181 0.188-0.181 0.319v13.319c0 0.125 0.069 0.25 0.181 0.306l3.162 1.825c1.719 0.856 2.769-0.15 2.769-1.169v-13.15c0-0.188 0.15-0.331 0.338-0.331h1.463c0.181 0 0.338 0.144 0.338 0.331v13.156c0 2.288-1.25 3.6-3.419 3.6-0.669 0-1.194 0-2.656-0.725l-3.025-1.744c-0.75-0.431-1.212-1.238-1.212-2.106v-13.319c0-0.863 0.463-1.675 1.212-2.106l11.531-6.662c0.731-0.412 1.7-0.412 2.425 0l11.544 6.669c0.75 0.431 1.212 1.238 1.212 2.106v13.319c0 0.863-0.462 1.669-1.212 2.106l-11.544 6.662c-0.369 0.212-0.787 0.325-1.213 0.325zM23.319 18.619c0-2.494-1.688-3.156-5.231-3.625-3.588-0.475-3.95-0.719-3.95-1.556 0-0.694 0.306-1.619 2.962-1.619 2.369 0 3.244 0.512 3.606 2.113 0.031 0.15 0.169 0.262 0.325 0.262h1.5c0.094 0 0.181-0.037 0.244-0.106s0.094-0.162 0.087-0.256c-0.231-2.756-2.063-4.037-5.762-4.037-3.294 0-5.256 1.387-5.256 3.719 0 2.525 1.956 3.225 5.112 3.538 3.781 0.369 4.075 0.925 4.075 1.669 0 1.288-1.038 1.837-3.469 1.837-3.056 0-3.725-0.769-3.95-2.288-0.025-0.163-0.162-0.281-0.331-0.281h-1.494c-0.188 0-0.331 0.15-0.331 0.331 0 1.944 1.056 4.262 6.112 4.262 3.65-0.006 5.75-1.45 5.75-3.962z"></path>
</symbol>
<symbol id="icon-logos_react" viewBox="0 0 36 32">
<path d="M29.082 10.010c-0.369-0.127-0.742-0.244-1.117-0.352 0.063-0.258 0.121-0.512 0.173-0.762 0.846-4.106 0.293-7.414-1.596-8.503-1.811-1.044-4.772 0.045-7.763 2.648-0.295 0.257-0.583 0.521-0.864 0.793-0.188-0.181-0.38-0.358-0.575-0.531-3.135-2.783-6.277-3.956-8.163-2.864-1.809 1.047-2.345 4.157-1.583 8.048 0.076 0.385 0.161 0.769 0.257 1.15-0.445 0.126-0.874 0.261-1.285 0.404-3.675 1.281-6.022 3.289-6.022 5.372 0 2.151 2.52 4.309 6.347 5.617 0.31 0.106 0.623 0.204 0.938 0.294-0.102 0.41-0.193 0.824-0.273 1.239-0.726 3.824-0.159 6.86 1.645 7.9 1.864 1.075 4.991-0.030 8.037-2.692 0.247-0.216 0.489-0.439 0.724-0.668 0.305 0.294 0.618 0.58 0.938 0.856 2.95 2.539 5.864 3.564 7.666 2.52 1.862-1.078 2.467-4.339 1.681-8.308-0.062-0.311-0.131-0.62-0.208-0.928 0.22-0.065 0.435-0.132 0.645-0.202 3.979-1.318 6.569-3.45 6.569-5.63 0-2.090-2.423-4.112-6.172-5.403zM28.219 19.635c-0.19 0.063-0.385 0.123-0.583 0.182-0.439-1.391-1.032-2.87-1.758-4.398 0.692-1.492 1.262-2.951 1.689-4.333 0.355 0.103 0.7 0.211 1.032 0.325 3.212 1.106 5.172 2.741 5.172 4.001 0 1.342-2.116 3.084-5.552 4.222zM26.794 22.46c0.347 1.755 0.397 3.341 0.167 4.581-0.207 1.114-0.622 1.857-1.137 2.155-1.094 0.633-3.433-0.19-5.956-2.361-0.298-0.257-0.589-0.523-0.873-0.796 0.978-1.070 1.956-2.313 2.91-3.694 1.678-0.149 3.263-0.392 4.701-0.725 0.069 0.278 0.132 0.558 0.188 0.84zM12.376 29.087c-1.069 0.377-1.92 0.388-2.435 0.092-1.095-0.631-1.55-3.069-0.929-6.339 0.074-0.386 0.158-0.771 0.253-1.152 1.422 0.315 2.996 0.541 4.678 0.677 0.961 1.351 1.966 2.594 2.98 3.681-0.215 0.208-0.436 0.412-0.661 0.609-1.347 1.177-2.696 2.012-3.886 2.433zM7.37 19.627c-1.693-0.579-3.090-1.33-4.049-2.151-0.861-0.737-1.296-1.469-1.296-2.063 0-1.264 1.884-2.876 5.027-3.972 0.381-0.133 0.781-0.258 1.195-0.376 0.434 1.413 1.004 2.89 1.692 4.384-0.697 1.516-1.274 3.017-1.713 4.446-0.288-0.082-0.573-0.172-0.857-0.268zM9.048 8.202c-0.652-3.334-0.219-5.849 0.871-6.48 1.161-0.672 3.729 0.286 6.436 2.689 0.177 0.157 0.35 0.317 0.521 0.481-1.009 1.083-2.005 2.316-2.957 3.659-1.633 0.151-3.195 0.394-4.632 0.72-0.088-0.354-0.168-0.711-0.239-1.070zM24.021 11.899c-0.339-0.586-0.691-1.165-1.056-1.736 1.108 0.14 2.169 0.326 3.165 0.553-0.299 0.959-0.672 1.961-1.111 2.989-0.321-0.609-0.654-1.211-0.999-1.806zM17.915 5.952c0.684 0.741 1.369 1.568 2.043 2.466-1.367-0.065-2.736-0.065-4.103-0.001 0.674-0.889 1.365-1.716 2.060-2.465zM11.77 11.909c-0.341 0.591-0.667 1.189-0.98 1.795-0.432-1.024-0.801-2.031-1.103-3.004 0.99-0.222 2.046-0.403 3.147-0.54-0.368 0.575-0.723 1.158-1.064 1.749zM12.866 20.77c-1.137-0.127-2.209-0.299-3.199-0.514 0.306-0.99 0.684-2.018 1.125-3.064 0.314 0.606 0.642 1.205 0.984 1.796 0.352 0.607 0.716 1.202 1.090 1.783zM17.956 24.978c-0.703-0.758-1.404-1.597-2.089-2.499 0.665 0.026 1.342 0.039 2.031 0.039 0.708 0 1.407-0.016 2.095-0.047-0.676 0.919-1.358 1.759-2.038 2.507zM25.034 17.138c0.464 1.058 0.855 2.081 1.166 3.054-1.006 0.23-2.093 0.415-3.238 0.552 0.367-0.582 0.722-1.17 1.066-1.766 0.349-0.606 0.685-1.219 1.007-1.839zM22.742 18.237c-0.526 0.913-1.081 1.809-1.665 2.687-1.058 0.075-2.118 0.112-3.179 0.112-1.080 0-2.131-0.034-3.143-0.099-0.599-0.875-1.165-1.773-1.697-2.691-0.529-0.913-1.023-1.846-1.481-2.797 0.457-0.951 0.95-1.884 1.477-2.798l-0 0c0.527-0.914 1.088-1.808 1.683-2.679 1.032-0.078 2.091-0.119 3.161-0.119 1.075 0 2.135 0.041 3.167 0.12 0.589 0.87 1.147 1.761 1.673 2.671 0.529 0.912 1.028 1.841 1.496 2.785-0.464 0.954-0.961 1.891-1.492 2.81zM25.801 1.678c1.162 0.67 1.614 3.374 0.884 6.919-0.047 0.226-0.099 0.457-0.156 0.69-1.44-0.332-3.004-0.58-4.641-0.733-0.954-1.358-1.942-2.593-2.934-3.662 0.26-0.251 0.526-0.495 0.798-0.732 2.563-2.23 4.958-3.111 6.049-2.481zM17.898 12.313c1.712 0 3.1 1.388 3.1 3.1s-1.388 3.1-3.1 3.1c-1.712 0-3.1-1.388-3.1-3.1s1.388-3.1 3.1-3.1z"></path>
</symbol>
<symbol id="icon-ph_file-js" viewBox="0 0 32 32">
<path d="M26.707 10.293l-7-7c-0.093-0.093-0.203-0.166-0.325-0.217s-0.252-0.076-0.383-0.076h-12c-0.53 0-1.039 0.211-1.414 0.586s-0.586 0.884-0.586 1.414v9c0 0.265 0.105 0.52 0.293 0.707s0.442 0.293 0.707 0.293c0.265 0 0.52-0.105 0.707-0.293s0.293-0.442 0.293-0.707v-9h11v6c0 0.265 0.105 0.52 0.293 0.707s0.442 0.293 0.707 0.293h6v15h-3c-0.265 0-0.52 0.105-0.707 0.293s-0.293 0.442-0.293 0.707c0 0.265 0.105 0.52 0.293 0.707s0.442 0.293 0.707 0.293h3c0.53 0 1.039-0.211 1.414-0.586s0.586-0.884 0.586-1.414v-16c0-0.131-0.026-0.261-0.076-0.383s-0.124-0.232-0.217-0.325zM20 6.414l3.586 3.586h-3.586v-3.586zM18.476 24.539c-0.039 0.383-0.162 0.752-0.361 1.081s-0.468 0.61-0.788 0.823c-0.649 0.433-1.453 0.558-2.186 0.558-0.641-0.004-1.279-0.088-1.899-0.25-0.255-0.072-0.472-0.241-0.602-0.473s-0.163-0.505-0.092-0.76c0.072-0.255 0.241-0.472 0.473-0.602s0.505-0.163 0.76-0.092c0.547 0.15 1.875 0.337 2.444-0.045 0.11-0.074 0.229-0.19 0.267-0.491 0.043-0.334-0.089-0.512-1.598-0.949-1.169-0.337-3.125-0.904-2.875-2.889 0.039-0.375 0.16-0.737 0.354-1.060s0.457-0.599 0.771-0.809c1.48-1 3.839-0.414 4.104-0.345 0.257 0.067 0.476 0.234 0.61 0.463s0.171 0.502 0.104 0.759c-0.067 0.257-0.234 0.476-0.463 0.61s-0.502 0.171-0.759 0.104c-0.561-0.146-1.904-0.32-2.479 0.070-0.075 0.051-0.137 0.119-0.181 0.199s-0.067 0.169-0.069 0.26c-0.015 0.113-0.018 0.136 0.139 0.238 0.289 0.186 0.806 0.335 1.306 0.48 1.23 0.354 3.3 0.957 3.020 3.121zM10 19v4.75c0 0.862-0.342 1.689-0.952 2.298s-1.436 0.952-2.298 0.952c-0.862 0-1.689-0.342-2.298-0.952s-0.952-1.436-0.952-2.298c0-0.265 0.105-0.52 0.293-0.707s0.442-0.293 0.707-0.293c0.265 0 0.52 0.105 0.707 0.293s0.293 0.442 0.293 0.707c0 0.331 0.132 0.649 0.366 0.884s0.552 0.366 0.884 0.366c0.332 0 0.649-0.132 0.884-0.366s0.366-0.552 0.366-0.884v-4.75c0-0.265 0.105-0.52 0.293-0.707s0.442-0.293 0.707-0.293c0.265 0 0.52 0.105 0.707 0.293s0.293 0.442 0.293 0.707z"></path>
</symbol>
<symbol id="icon-ector" viewBox="0 0 40 32">
<path d="M33.782 1.020c0.691-0.662 1.611-1.027 2.565-1.020s1.869 0.387 2.55 1.059c0.681 0.672 1.076 1.584 1.101 2.543s-0.321 1.891-0.966 2.598l-19.578 24.617c-0.337 0.365-0.743 0.657-1.195 0.86s-0.939 0.312-1.434 0.322c-0.495 0.009-0.986-0.082-1.445-0.268s-0.876-0.463-1.226-0.815l-12.984-13.054c-0.362-0.339-0.652-0.747-0.853-1.201s-0.309-0.944-0.318-1.441 0.082-0.99 0.267-1.451c0.185-0.461 0.461-0.879 0.81-1.231s0.766-0.628 1.224-0.814 0.949-0.277 1.443-0.269c0.494 0.009 0.981 0.118 1.433 0.32s0.858 0.494 1.195 0.857l10.275 10.325 17.042-21.83c0.031-0.038 0.063-0.074 0.098-0.109h-0.005z"></path>
</symbol>
</defs>
</svg>